<svg width="200" height="200" viewBox="0 0 200 200" fill="none" xmlns="http://www.w3.org/2000/svg">
  <!-- Shadow -->
  <ellipse cx="100" cy="185" rx="70" ry="8" fill="black" opacity="0.15"/>
  
  <!-- Body -->
  <ellipse cx="100" cy="130" rx="70" ry="55" fill="#FFD700"/>
  
  <!-- Body shadow/depth -->
  <ellipse cx="115" cy="140" rx="35" ry="40" fill="#FFC700" opacity="0.4"/>
  
  <!-- Head -->
  <circle cx="100" cy="70" r="45" fill="#FFD700"/>
  
  <!-- Head highlight -->
  <ellipse cx="115" cy="60" rx="20" ry="25" fill="white" opacity="0.35"/>
  
  <!-- Eye background (white) -->
  <circle cx="105" cy="60" r="18" fill="white"/>
  
  <!-- Pupil -->
  <circle cx="108" cy="58" r="10" fill="#1a1a1a"/>
  
  <!-- Eye shine -->
  <circle cx="110" cy="55" r="4" fill="white"/>
  
  <!-- Beak base -->
  <ellipse cx="65" cy="75" rx="22" ry="12" fill="#FF8C00"/>
  
  <!-- Beak top highlight -->
  <ellipse cx="65" cy="72" rx="22" ry="6" fill="#FFA500"/>
  
  <!-- Tail feather -->
  <path d="M155 120 Q165 115 168 125 Q170 135 165 140 Q160 145 155 143 Q152 135 155 120Z" fill="#FFD700"/>
  
  <!-- Tail highlight -->
  <ellipse cx="162" cy="128" rx="4" ry="10" fill="white" opacity="0.3"/>
  
  <!-- Body main highlight -->
  <ellipse cx="90" cy="115" rx="25" ry="20" fill="white" opacity="0.5"/>
  
  <!-- Wing/side curve (subtle) -->
  <path d="M70 120 Q60 130 65 145" stroke="#FFC700" stroke-width="2" fill="none" opacity="0.3"/>
</svg>
